:version 1.10
:name ASF
:units
  mass 1
  length 1
  angle deg
:documentation
  ASF file generated by Kaydara
:root
  axis xyz
  order  tx ty tz rx ry rz
  position 0 0 0
  orientation 0 0 0
:bonedata
  begin
    id 1
    name RightUpLegDummy
    direction -0.65628 -0.754516 0.00165102
    length 4.76918
    axis 0 0 0 xyz
  end
  begin
    id 2
    name RightUpLeg
    direction -0.145584 -0.923362 0.355256
    length 17.9961
    axis -24.7611 -13.1006 1.78531 xyz
    dof rx ry rz
  end
  begin
    id 3
    name RightLeg
    direction 0.263379 0.172355 -0.949171
    length 13.3386
    axis 89.6202 -21.1929 12.3855 xyz
    dof rx ry rz
  end
  begin
    id 4
    name RightFoot
    direction 0.224283 -0.968777 -0.105675
    length 5.86697
    axis 56.995 -39.6905 17.3365 xyz
    dof rx ry rz
  end
  begin
    id 5
    name RightToes
    direction -0.0806345 -0.9037 0.420506
    length 4.75197
    axis 146.825 -39.7828 17.6019 xyz
    dof rx ry rz
  end
  begin
    id 6
    name SpineDummy
    direction -3.39852e-014 1 9.33296e-014
    length 8.13779
    axis 0 0 0 xyz
  end
  begin
    id 7
    name Spine
    direction -0.156609 0.733703 0.661176
    length 7.14978
    axis 41.2365 5.68757 17.0844 xyz
    dof rx ry rz
  end
  begin
    id 8
    name Spine1
    direction 0 0 0
    length 0
    axis 42.8809 47.8308 -3.36039 xyz
    dof rx ry rz
  end
  begin
    id 9
    name HEadDummy
    direction 0.546431 0.701947 0.456819
    length 3.55512
    axis 42.8809 47.8308 -3.36039 xyz
  end
  begin
    id 10
    name HEad
    direction 0.23444 0.828559 0.508457
    length 7.35827
    axis 51.1864 49.2662 27.4903 xyz
    dof rx ry rz
  end
  begin
    id 11
    name LeftShoulder1Dummy
    direction 0.431183 0.475873 -0.766568
    length 2.49352
    axis 42.8809 47.8308 -3.36039 xyz
  end
  begin
    id 12
    name LeftShoulder1
    direction 0.268187 -0.383402 -0.883786
    length 4.48604
    axis -119.517 0.106469 35.1736 xyz
    dof rx ry rz
  end
  begin
    id 13
    name LeftArm
    direction 0.380567 -0.703221 -0.600541
    length 10.1142
    axis -5.41825 36.2925 7.8293 xyz
    dof rx ry rz
  end
  begin
    id 14
    name LeftForeArm
    direction 0.541071 -0.732356 -0.413396
    length 9.39839
    axis 4.65387 33.7604 7.81644 xyz
    dof rx ry rz
  end
  begin
    id 15
    name LeftHand
    direction 0.847511 -0.389379 -0.360707
    length 3.66142
    axis 7.65593 21.1436 -24.6758 xyz
    dof rx ry rz
  end
  begin
    id 16
    name RightShoulderDummy
    direction -0.692546 0.541855 0.476208
    length 2.49352
    axis 42.8809 47.8308 -3.36039 xyz
  end
  begin
    id 17
    name RightShoulder
    direction -0.870808 -0.316653 0.376065
    length 4.48602
    axis 141.571 51.133 -100.254 xyz
    dof rx ry rz
  end
  begin
    id 18
    name RightArm
    direction 0.366897 -0.87275 0.322015
    length 10.1142
    axis 92.3258 71.2036 138.917 xyz
    dof rx ry rz
  end
  begin
    id 19
    name RightForeArm
    direction 0.702487 -0.694568 0.155197
    length 9.39835
    axis 153.863 41.5092 -176.604 xyz
    dof rx ry rz
  end
  begin
    id 20
    name RightHand
    direction 0.79502 -0.601276 0.0800636
    length 3.66142
    axis 154.247 4.59222 142.9 xyz
    dof rx ry rz
  end
  begin
    id 21
    name LeftUpLegDummy
    direction 0.65628 -0.754516 0.00165102
    length 4.76919
    axis 0 0 0 xyz
  end
  begin
    id 22
    name LeftUpLeg
    direction -0.1277 -0.689368 0.713067
    length 17.9961
    axis -48.3385 -17.8675 0.791927 xyz
    dof rx ry rz
  end
  begin
    id 23
    name LeftLeg
    direction 0.109849 -0.991246 -0.0732378
    length 13.3386
    axis -2.05791 -7.30784 1.72042 xyz
    dof rx ry rz
  end
  begin
    id 24
    name LeftFoot
    direction 0.0448355 -0.272614 0.961078
    length 5.86697
    axis -18.7733 -7.89606 10.2113 xyz
    dof rx ry rz
  end
  begin
    id 25
    name LeftToes
    direction -0.18506 0.293668 0.937823
    length 4.75197
    axis 71.2267 -7.89606 10.2113 xyz
    dof rx ry rz
  end
:hierarchy
  begin
    root RightUpLegDummy SpineDummy LeftUpLegDummy
    RightUpLegDummy RightUpLeg
    RightUpLeg RightLeg
    RightLeg RightFoot
    RightFoot RightToes
    SpineDummy Spine
    Spine Spine1
    Spine1 HEadDummy LeftShoulder1Dummy RightShoulderDummy
    HEadDummy HEad
    LeftShoulder1Dummy LeftShoulder1
    LeftShoulder1 LeftArm
    LeftArm LeftForeArm
    LeftForeArm LeftHand
    RightShoulderDummy RightShoulder
    RightShoulder RightArm
    RightArm RightForeArm
    RightForeArm RightHand
    LeftUpLegDummy LeftUpLeg
    LeftUpLeg LeftLeg
    LeftLeg LeftFoot
    LeftFoot LeftToes
  end

:SAMPLES-PER-SECOND 30
:FULLY-SPECIFIED
:DEGREES
410
root  4.07975 30.0151 5.33388 -158.547 -10.8084 174.865
RightUpLeg  -62.3989 36.1715 -0.112168
RightLeg  -66.6566 -15.3563 1.48648
RightFoot  41.3635 -0.443099 -13.1296
RightToes  -1.27222e-014 -6.36111e-015 6.36111e-015
Spine  15.4899 -7.69323 9.659
Spine1  3.06509 -8.08181 48.7533
HEad  -25.1409 -22.5507 -19.8575
LeftShoulder1  6.36111e-015 -1.33558e-015 6.49777e-015
LeftArm  160.326 -68.8865 -158.724
LeftForeArm  -97.1894 -22.1843 132.076
LeftHand  2.43939 10.3902 -8.74623
RightShoulder  -4.77083e-015 -6.36111e-015 -3.18055e-015
RightArm  42.0164 39.7203 -11.2502
RightForeArm  8.95928 10.0943 7.56535
RightHand  9.4108 -9.55551 -33.6876
LeftUpLeg  -3.24076 47.6561 -9.56102
LeftLeg  37.3741 5.30199 9.94376
LeftFoot  -29.94 0.243658 -4.76695
LeftToes  1.27222e-014 -5.20697e-012 1.80337e-011
411
root  4.41616 29.3921 5.17868 -158.086 -13.2484 175.378
RightUpLeg  -65.394 36.2067 -1.02744
RightLeg  -63.9536 -16.6068 2.79334
RightFoot  41.4519 -1.92145 -11.6214
RightToes  -1.27222e-014 -6.36111e-015 6.36111e-015
Spine  17.2345 -6.0647 11.6722
Spine1  2.75195 -5.68298 46.0222
HEad  -25.3085 -26.2632 -18.4668
LeftShoulder1  6.36111e-015 -1.33558e-015 6.49777e-015
LeftArm  160.104 -68.6838 -162.935
LeftForeArm  -96.4361 -18.973 132.482
LeftHand  1.88063 8.73925 -9.10087
RightShoulder  -4.77083e-015 -6.36111e-015 -3.18055e-015
RightArm  52.9511 38.4217 -10.072
RightForeArm  4.50686 5.24837 5.94132
RightHand  13.5107 -10.9603 -45.6313
LeftUpLeg  -3.94243 45.1026 -9.57727
LeftLeg  41.3441 5.38757 11.499
LeftFoot  -32.6943 0.139341 -5.42572
LeftToes  1.27222e-014 -5.20697e-012 1.80337e-011
412
root  4.83743 29.0048 5.05048 -159.417 -17.1935 176.438
RightUpLeg  -65.1927 35.1093 -0.112979
RightLeg  -62.3385 -18.3082 4.74291
RightFoot  41.4464 -2.25982 -11.2719
RightToes  -1.27222e-014 -6.36111e-015 6.36111e-015
Spine  17.4584 -6.33553 11.7651
Spine1  2.7252 -5.55222 44.9736
HEad  -25.0446 -24.8332 -15.4065
LeftShoulder1  6.36111e-015 -1.33558e-015 6.49777e-015
LeftArm  158.951 -70.5058 -162.815
LeftForeArm  -96.5902 -18.0075 131.566
LeftHand  1.55386 7.55439 -8.90962
RightShoulder  -4.77083e-015 -6.36111e-015 -3.18055e-015
RightArm  49.7969 35.5184 -12.013
RightForeArm  4.02901 3.1591 8.73511
RightHand  15.9616 -12.56 -50.1039
LeftUpLeg  -1.53258 42.5194 -6.80719
LeftLeg  45.2832 4.37254 11.8673
LeftFoot  -34.0757 0.0749682 -5.76781
LeftToes  1.27222e-014 -5.20697e-012 1.80337e-011
413
root  5.28102 28.9353 4.96951 -162.213 -21.765 177.653
RightUpLeg  -62.2964 33.1339 1.77565
RightLeg  -62.0178 -20.1339 7.05012
RightFoot  40.2175 -2.19282 -11.0555
RightToes  -1.27222e-014 -6.36111e-015 6.36111e-015
Spine  17.768 -8.0939 11.0064
Spine1  0.164336 -7.10328 43.6369
HEad  -23.4094 -20.9099 -13.5975
LeftShoulder1  6.36111e-015 -1.33558e-015 6.49777e-015
LeftArm  152.434 -73.6462 -156.204
LeftForeArm  -97.7506 -20.085 129.242
LeftHand  1.52471 7.00697 -7.98182
RightShoulder  -4.77083e-015 -6.36111e-015 -3.18055e-015
RightArm  26.7529 25.6772 -22.4437
RightForeArm  16.0281 7.30893 20.2757
RightHand  12.6581 -12.5773 -39.7259
LeftUpLeg  2.83051 39.6593 -3.18437
LeftLeg  47.8074 3.22286 11.3337
LeftFoot  -34.3863 0.0604544 -5.75953
LeftToes  1.27222e-014 -5.20697e-012 1.80337e-011
414
root  5.68516 29.2488 4.93848 -165.132 -25.6986 178.51
RightUpLeg  -58.1116 31.2313 3.28188
RightLeg  -63.1726 -20.7239 8.28064
RightFoot  39.2365 -2.33307 -10.6733
RightToes  -1.27222e-014 -6.36111e-015 6.36111e-015
Spine  19.333 -9.52574 10.0122
Spine1  -6.50074 -8.22868 41.8102
HEad  -21.6309 -16.9218 -15.3369
LeftShoulder1  6.36111e-015 -1.33558e-015 6.49777e-015
LeftArm  133.18 -75.5948 -139.564
LeftForeArm  -99.4548 -27.5075 125.076
LeftHand  1.85793 6.6857 -5.00231
RightShoulder  -4.77083e-015 -6.36111e-015 -3.18055e-015
RightArm  16.286 13.7604 -23.4542
RightForeArm  24.9077 8.17514 26.0371
RightHand  6.2237 -8.41912 -22.4533
LeftUpLeg  7.29896 36.8181 -0.469757
LeftLeg  47.7212 2.7682 10.6561
LeftFoot  -34.1818 0.0768132 -5.15238
LeftToes  1.27222e-014 -5.20697e-012 1.80337e-011
415
root  5.9814 29.9266 4.85286 -167.204 -29.0593 178.272
RightUpLeg  -53.5182 29.5251 3.51925
RightLeg  -65.1986 -20.046 8.21991
RightFoot  39.232 -2.63108 -10.3542
RightToes  -1.27222e-014 -6.36111e-015 6.36111e-015
Spine  16.7846 -9.66286 9.49543
Spine1  -7.10758 -8.62364 38.9771
HEad  -23.7139 -12.5095 -19.0319
LeftShoulder1  6.36111e-015 -1.33558e-015 6.49777e-015
LeftArm  122.728 -75.5602 -134.195
LeftForeArm  -99.0604 -41.4945 119.185
LeftHand  2.07368 5.78574 -1.2675
RightShoulder  -4.77083e-015 -6.36111e-015 -3.18055e-015
RightArm  15.894 7.80602 -23.0269
RightForeArm  25.7469 8.82614 26.2674
RightHand  1.88928 -2.96073 -8.71647
LeftUpLeg  11.5189 34.4344 0.775712
LeftLeg  44.7805 2.17194 8.86595
LeftFoot  -33.3105 0.117912 -3.78694
LeftToes  1.27222e-014 -5.20697e-012 1.80337e-011
416
root  6.25143 31.1636 4.79405 -168.675 -32.4015 177.646
RightUpLeg  -47.6737 29.9414 2.51876
RightLeg  -71.1753 -19.5419 10.3325
RightFoot  38.8383 -2.45967 -10.4407
RightToes  -1.27222e-014 -6.36111e-015 6.36111e-015
Spine  14.7795 -9.09425 8.04114
Spine1  -8.82924 -8.72021 39.8793
HEad  -23.4507 -3.32434 -24.362
LeftShoulder1  6.36111e-015 -1.33558e-015 6.49777e-015
LeftArm  111.238 -73.7965 -128.434
LeftForeArm  -93.5744 -56.9288 111.53
LeftHand  1.4365 3.71658 -0.105766
RightShoulder  -4.77083e-015 -6.36111e-015 -3.18055e-015
RightArm  21.0643 5.47504 -19.1237
RightForeArm  23.4449 10.5683 25.3254
RightHand  0.456822 -0.460784 -2.77905
LeftUpLeg  15.2595 31.7324 1.13388
LeftLeg  39.0739 0.414586 5.44991
LeftFoot  -29.4587 0.198406 -2.65436
LeftToes  1.27222e-014 -5.20697e-012 1.80337e-011
417
root  6.45956 32.8005 4.69052 -169.416 -37.0191 176.477
RightUpLeg  -40.6781 31.116 0.799493
RightLeg  -79.1498 -18.3113 13.2105
RightFoot  34.3356 -0.112861 -12.0201
RightToes  -1.27222e-014 -6.36111e-015 6.36111e-015
Spine  10.2672 -8.42791 8.09477
Spine1  -7.50778 -9.60117 40.312
HEad  -21.5337 6.68548 -27.9323
LeftShoulder1  6.36111e-015 -1.33558e-015 6.49777e-015
LeftArm  111.833 -69.4279 -134.025
LeftForeArm  -78.1473 -70.9625 96.3145
LeftHand  0.58895 1.98579 -1.79406
RightShoulder  -4.77083e-015 -6.36111e-015 -3.18055e-015
RightArm  27.6286 3.3588 -13.6195
RightForeArm  16.5006 8.48116 21.4799
RightHand  0.645418 -1.45922 -2.71756
LeftUpLeg  19.1368 29.0307 1.0119
LeftLeg  31.4073 -2.38633 1.89986
LeftFoot  -22.8455 0.192546 -1.09063
LeftToes  1.27222e-014 -5.20697e-012 1.80337e-011
418
root  6.42523 34.5565 4.32452 -169.183 -43.1805 174.775
RightUpLeg  -33.2621 33.6251 -1.29901
RightLeg  -85.0937 -16.4438 13.863
RightFoot  27.0271 2.75471 -14.1099
RightToes  -1.27222e-014 -6.36111e-015 6.36111e-015
Spine  3.91924 -8.67951 7.88657
Spine1  -6.15595 -11.301 40.5338
HEad  -18.3762 16.1031 -29.3849
LeftShoulder1  6.36111e-015 -1.33558e-015 6.49777e-015
LeftArm  108.463 -63.775 -133.954
LeftForeArm  -45.0783 -77.7372 63.4374
LeftHand  0.133064 1.38689 -4.20234
RightShoulder  -4.77083e-015 -6.36111e-015 -3.18055e-015
RightArm  30.483 -3.94777 -11.7646
RightForeArm  10.072 4.82748 16.8785
RightHand  0.700714 -1.44926 -3.11784
LeftUpLeg  24.2157 26.9713 1.80135
LeftLeg  22.536 -6.67803 -1.19881
LeftFoot  -15.3651 -0.232478 1.96907
LeftToes  1.27222e-014 -5.20697e-012 1.80337e-011
419
root  6.12463 36.1354 3.69021 -167.821 -49.8019 172.383
RightUpLeg  -26.7345 36.1156 -1.80834
RightLeg  -84.5081 -15.8077 11.3018
RightFoot  21.9119 4.37118 -15.4703
RightToes  -1.27222e-014 -6.36111e-015 6.36111e-015
Spine  -2.96865 -10.5137 5.74351
Spine1  -5.58753 -13.5102 41.1221
HEad  -15.6623 24.2491 -29.1017
LeftShoulder1  6.36111e-015 -1.33558e-015 6.49777e-015
LeftArm  98.5339 -58.84 -125.617
LeftForeArm  -20.9537 -77.5341 38.8506
LeftHand  0.0560497 1.51512 -5.45804
RightShoulder  -4.77083e-015 -6.36111e-015 -3.18055e-015
RightArm  32.8161 -13.4106 -11.8115
RightForeArm  2.69355 -0.473595 10.3159
RightHand  -0.317761 2.10991 -0.392818
LeftUpLeg  29.8025 25.7894 4.30763
LeftLeg  14.4299 -15.0112 -4.22256
LeftFoot  -6.93382 -0.695245 3.19764
LeftToes  1.27222e-014 -5.20697e-012 1.80337e-011
420
root  5.72238 37.2888 3.00305 -165.241 -56.1121 168.759
RightUpLeg  -22.1224 34.3107 0.16707
RightLeg  -76.3607 -16.7551 7.82911
RightFoot  20.5827 5.13518 -16.4067
RightToes  -1.27222e-014 -6.36111e-015 6.36111e-015
Spine  -8.94863 -13.2491 2.26821
Spine1  -5.60763 -15.5657 42.1569
HEad  -13.6035 29.8237 -27.7694
LeftShoulder1  6.36111e-015 -1.33558e-015 6.49777e-015
LeftArm  88.0314 -53.6407 -115.432
LeftForeArm  -19.5641 -77.0055 37.0717
LeftHand  -0.180994 1.03416 -6.27777
RightShoulder  -4.77083e-015 -6.36111e-015 -3.18055e-015
RightArm  37.8875 -20.741 -9.02381
RightForeArm  -7.36786 -9.95142 3.10092
RightHand  -1.30151 5.88082 3.67585
LeftUpLeg  33.7548 25.1889 7.10262
LeftLeg  9.65608 -24.673 -6.00942
LeftFoot  2.73381 0.790851 -2.43428
LeftToes  1.27222e-014 -5.20697e-012 1.80337e-011
421
root  5.31819 37.9804 2.42442 -160.835 -62.1496 163.019
RightUpLeg  -19.2858 28.1227 2.36852
RightLeg  -66.4606 -19.3601 7.7799
RightFoot  20.6252 5.13068 -16.4064
RightToes  -1.27222e-014 -6.36111e-015 6.36111e-015
Spine  -13.5069 -15.8469 -1.61411
Spine1  -5.37828 -16.8012 44.0219
HEad  -12.1271 32.2684 -26.8968
LeftShoulder1  6.36111e-015 -1.33558e-015 6.49777e-015
LeftArm  81.7063 -48.4663 -109.162
LeftForeArm  -27.543 -76.9767 44.8126
LeftHand  -0.788182 -0.315494 -8.36665
RightShoulder  -4.77083e-015 -6.36111e-015 -3.18055e-015
RightArm  43.1473 -27.8244 -7.99112
RightForeArm  -14.4565 -17.1899 -1.14004
RightHand  -1.64871 7.8045 4.88448
LeftUpLeg  35.5187 25.2569 8.4222
LeftLeg  8.16872 -25.7807 -5.76239
LeftFoot  9.37716 4.56591 -11.8172
LeftToes  1.27222e-014 -5.20697e-012 1.80337e-011
